<svg version="1.1" viewBox="0.0 0.0 755.9055118110236 755.9055118110236" fill="none" stroke="none" stroke-linecap="square" stroke-miterlimit="10" xmlns:xlink="http://www.w3.org/1999/xlink" xmlns="http://www.w3.org/2000/svg"><clipPath id="p.0"><path d="m0 0l755.9055 0l0 755.9055l-755.9055 0l0 -755.9055z" clip-rule="nonzero"/></clipPath><g clip-path="url(#p.0)"><path fill="#000000" fill-opacity="0.0" d="m0 0l755.9055 0l0 755.9055l-755.9055 0z" fill-rule="evenodd"/><path fill="#000000" fill-opacity="0.0" d="m143.00787 67.03937l391.57324 0l78.31653 78.31653l0 543.51025l-469.88977 0z" fill-rule="evenodd"/><path stroke="#ffffff" stroke-width="24.0" stroke-linejoin="round" stroke-linecap="butt" d="m143.00787 67.03937l391.57324 0l78.31653 78.31653l0 543.51025l-469.88977 0z" fill-rule="evenodd"/><path fill="#000000" fill-opacity="0.0" d="m185.14961 298.14172l385.60632 0l0 159.62207l-385.60632 0z" fill-rule="evenodd"/><path stroke="#e06666" stroke-width="24.0" stroke-linejoin="round" stroke-linecap="butt" d="m185.14961 298.14172l385.60632 0l0 159.62207l-385.60632 0z" fill-rule="evenodd"/><path fill="#e06666" d="m229.59338 435.55273l0 -114.53125l37.109375 0q21.09375 0 27.5 1.71875q9.84375 2.578125 16.484375 11.21875q6.640625 8.625 6.640625 22.296875q0 10.546875 -3.828125 17.734375q-3.828125 7.1875 -9.734375 11.296875q-5.890625 4.09375 -11.984375 5.421875q-8.28125 1.640625 -23.984375 1.640625l-15.078125 0l0 43.203125l-23.125 0zm23.125 -95.15625l0 32.5l12.65625 0q13.671875 0 18.28125 -1.796875q4.609375 -1.796875 7.21875 -5.625q2.625 -3.828125 2.625 -8.90625q0 -6.25 -3.671875 -10.3125q-3.671875 -4.0625 -9.296875 -5.078125q-4.140625 -0.78125 -16.640625 -0.78125l-11.171875 0zm83.515625 -19.375l42.265625 0q14.296875 0 21.796875 2.1875q10.078125 2.96875 17.265625 10.546875q7.1875 7.578125 10.9375 18.5625q3.75 10.96875 3.75 27.0625q0 14.140625 -3.515625 24.375q-4.296875 12.5 -12.265625 20.234375q-6.015625 5.859375 -16.25 9.140625q-7.65625 2.421875 -20.46875 2.421875l-43.515625 0l0 -114.53125zm23.125 19.375l0 75.859375l17.265625 0q9.6875 0 13.984375 -1.09375q5.625 -1.40625 9.328125 -4.765625q3.71875 -3.359375 6.0625 -11.046875q2.34375 -7.703125 2.34375 -20.984375q0 -13.28125 -2.34375 -20.390625q-2.34375 -7.109375 -6.5625 -11.09375q-4.21875 -3.984375 -10.703125 -5.390625q-4.84375 -1.09375 -18.984375 -1.09375l-10.390625 0zm92.65625 95.15625l0 -114.53125l78.515625 0l0 19.375l-55.390625 0l0 27.109375l47.8125 0l0 19.375l-47.8125 0l0 48.671875l-23.125 0z" fill-rule="nonzero"/></g></svg>